<svg xmlns="http://www.w3.org/2000/svg" xmlns:xlink="http://www.w3.org/1999/xlink" width="40" zoomAndPan="magnify" viewBox="0 0 30 30.000001" height="40" preserveAspectRatio="xMidYMid meet" version="1.0"><defs><clipPath id="dd24c38d1a"><path d="M 0.484375 0 L 29.515625 0 L 29.515625 29.03125 L 0.484375 29.03125 Z M 0.484375 0 " clip-rule="nonzero"/></clipPath><clipPath id="6aa4ce085f"><path d="M 3.386719 2.902344 L 26.613281 2.902344 L 26.613281 26.128906 L 3.386719 26.128906 Z M 3.386719 2.902344 " clip-rule="nonzero"/></clipPath><clipPath id="e9f8a32f72"><path d="M 9 7 L 21 7 L 21 26.128906 L 9 26.128906 Z M 9 7 " clip-rule="nonzero"/></clipPath></defs><g clip-path="url(#dd24c38d1a)"><path fill="#ffffff" d="M 0.484375 0 L 29.515625 0 L 29.515625 29.03125 L 0.484375 29.03125 Z M 0.484375 0 " fill-opacity="1" fill-rule="nonzero"/><path fill="#ffffff" d="M 0.484375 0 L 29.515625 0 L 29.515625 29.03125 L 0.484375 29.03125 Z M 0.484375 0 " fill-opacity="1" fill-rule="nonzero"/></g><g clip-path="url(#6aa4ce085f)"><path fill="#505050" d="M 26.617188 14.519531 C 26.617188 8.101562 21.417969 2.902344 15.003906 2.902344 C 8.585938 2.902344 3.386719 8.101562 3.386719 14.519531 C 3.386719 19.964844 7.136719 24.535156 12.195312 25.792969 L 12.195312 18.066406 L 9.800781 18.066406 L 9.800781 14.519531 L 12.195312 14.519531 L 12.195312 12.988281 C 12.195312 9.035156 13.984375 7.203125 17.867188 7.203125 C 18.601562 7.203125 19.871094 7.347656 20.390625 7.492188 L 20.390625 10.710938 C 20.117188 10.679688 19.640625 10.664062 19.050781 10.664062 C 17.144531 10.664062 16.410156 11.386719 16.410156 13.261719 L 16.410156 14.515625 L 20.203125 14.515625 L 19.550781 18.066406 L 16.410156 18.066406 L 16.410156 26.046875 C 22.160156 25.351562 26.617188 20.453125 26.617188 14.515625 Z M 26.617188 14.519531 " fill-opacity="1" fill-rule="nonzero"/></g><g clip-path="url(#e9f8a32f72)"><path fill="#ffffff" d="M 19.550781 18.066406 L 20.203125 14.515625 L 16.410156 14.515625 L 16.410156 13.261719 C 16.410156 11.386719 17.144531 10.664062 19.050781 10.664062 C 19.640625 10.664062 20.117188 10.679688 20.390625 10.710938 L 20.390625 7.492188 C 19.871094 7.347656 18.601562 7.203125 17.867188 7.203125 C 13.984375 7.203125 12.195312 9.035156 12.195312 12.988281 L 12.195312 14.519531 L 9.800781 14.519531 L 9.800781 18.066406 L 12.195312 18.066406 L 12.195312 25.792969 C 13.09375 26.015625 14.035156 26.132812 15.003906 26.132812 C 15.480469 26.132812 15.949219 26.105469 16.410156 26.046875 L 16.410156 18.066406 Z M 19.550781 18.066406 " fill-opacity="1" fill-rule="nonzero"/></g></svg>