<svg xmlns="http://www.w3.org/2000/svg" xmlns:xlink="http://www.w3.org/1999/xlink" width="40" zoomAndPan="magnify" viewBox="0 0 30 30.000001" height="40" preserveAspectRatio="xMidYMid meet" version="1.0"><defs><clipPath id="8d287a5217"><path d="M 0.484375 0 L 29.515625 0 L 29.515625 29.03125 L 0.484375 29.03125 Z M 0.484375 0 " clip-rule="nonzero"/></clipPath><clipPath id="8f242cee30"><path d="M 3.828125 3.34375 L 26.328125 3.34375 L 26.328125 25.84375 L 3.828125 25.84375 Z M 3.828125 3.34375 " clip-rule="nonzero"/></clipPath></defs><g clip-path="url(#8d287a5217)"><path fill="#ffffff" d="M 0.484375 0 L 29.515625 0 L 29.515625 29.03125 L 0.484375 29.03125 Z M 0.484375 0 " fill-opacity="1" fill-rule="nonzero"/><path fill="#ffffff" d="M 0.484375 0 L 29.515625 0 L 29.515625 29.03125 L 0.484375 29.03125 Z M 0.484375 0 " fill-opacity="1" fill-rule="nonzero"/></g><g clip-path="url(#8f242cee30)"><path fill="#505050" d="M 10.371094 3.421875 C 9.183594 3.476562 8.371094 3.667969 7.660156 3.945312 C 6.925781 4.230469 6.304688 4.617188 5.6875 5.238281 C 5.066406 5.859375 4.6875 6.480469 4.402344 7.21875 C 4.128906 7.929688 3.941406 8.742188 3.890625 9.929688 C 3.835938 11.121094 3.824219 11.5 3.832031 14.53125 C 3.835938 17.5625 3.847656 17.945312 3.90625 19.136719 C 3.960938 20.324219 4.152344 21.136719 4.429688 21.84375 C 4.714844 22.578125 5.097656 23.199219 5.722656 23.820312 C 6.34375 24.441406 6.964844 24.820312 7.703125 25.105469 C 8.410156 25.378906 9.222656 25.566406 10.414062 25.617188 C 11.605469 25.671875 11.984375 25.683594 15.015625 25.675781 C 18.046875 25.671875 18.429688 25.65625 19.621094 25.601562 C 20.808594 25.542969 21.617188 25.351562 22.328125 25.074219 C 23.0625 24.789062 23.683594 24.40625 24.304688 23.785156 C 24.921875 23.164062 25.304688 22.539062 25.585938 21.804688 C 25.863281 21.09375 26.050781 20.28125 26.101562 19.09375 C 26.152344 17.902344 26.164062 17.523438 26.160156 14.492188 C 26.15625 11.457031 26.140625 11.078125 26.082031 9.886719 C 26.027344 8.699219 25.835938 7.886719 25.558594 7.179688 C 25.273438 6.441406 24.890625 5.824219 24.269531 5.203125 C 23.648438 4.582031 23.023438 4.203125 22.289062 3.917969 C 21.578125 3.644531 20.765625 3.457031 19.578125 3.40625 C 18.386719 3.351562 18.003906 3.339844 14.972656 3.347656 C 11.941406 3.351562 11.5625 3.363281 10.371094 3.421875 M 10.5 23.605469 C 9.414062 23.558594 8.820312 23.378906 8.425781 23.226562 C 7.90625 23.023438 7.535156 22.78125 7.140625 22.394531 C 6.75 22.003906 6.507812 21.632812 6.304688 21.113281 C 6.152344 20.71875 5.964844 20.128906 5.914062 19.039062 C 5.859375 17.863281 5.847656 17.507812 5.839844 14.527344 C 5.835938 11.546875 5.847656 11.195312 5.898438 10.015625 C 5.945312 8.929688 6.125 8.335938 6.277344 7.945312 C 6.480469 7.421875 6.722656 7.050781 7.109375 6.65625 C 7.5 6.265625 7.871094 6.023438 8.394531 5.820312 C 8.785156 5.667969 9.378906 5.484375 10.464844 5.433594 C 11.644531 5.375 11.996094 5.363281 14.976562 5.359375 C 17.957031 5.351562 18.3125 5.363281 19.488281 5.414062 C 20.578125 5.460938 21.167969 5.640625 21.5625 5.796875 C 22.085938 5.996094 22.457031 6.238281 22.847656 6.628906 C 23.238281 7.019531 23.484375 7.386719 23.6875 7.910156 C 23.839844 8.304688 24.023438 8.894531 24.074219 9.980469 C 24.128906 11.160156 24.140625 11.511719 24.148438 14.492188 C 24.152344 17.472656 24.140625 17.828125 24.089844 19.003906 C 24.042969 20.09375 23.863281 20.683594 23.710938 21.078125 C 23.507812 21.597656 23.269531 21.972656 22.878906 22.363281 C 22.488281 22.753906 22.117188 22.996094 21.59375 23.199219 C 21.203125 23.355469 20.609375 23.539062 19.523438 23.589844 C 18.347656 23.644531 17.992188 23.65625 15.011719 23.664062 C 12.03125 23.667969 11.675781 23.65625 10.5 23.605469 M 19.605469 8.542969 C 19.605469 9.28125 20.207031 9.882812 20.945312 9.878906 C 21.683594 9.878906 22.285156 9.277344 22.28125 8.539062 C 22.28125 7.796875 21.679688 7.199219 20.941406 7.199219 C 20.199219 7.199219 19.601562 7.804688 19.601562 8.542969 M 9.261719 14.523438 C 9.265625 17.6875 11.839844 20.25 15.003906 20.242188 C 18.171875 20.238281 20.734375 17.667969 20.726562 14.5 C 20.722656 11.335938 18.148438 8.773438 14.984375 8.777344 C 11.816406 8.785156 9.253906 11.355469 9.261719 14.523438 M 11.273438 14.519531 C 11.269531 12.460938 12.933594 10.792969 14.988281 10.789062 C 17.042969 10.785156 18.710938 12.449219 18.714844 14.503906 C 18.722656 16.558594 17.058594 18.230469 15 18.234375 C 12.945312 18.238281 11.277344 16.574219 11.273438 14.519531 " fill-opacity="1" fill-rule="nonzero"/></g></svg>