<svg xmlns="http://www.w3.org/2000/svg" xmlns:xlink="http://www.w3.org/1999/xlink" width="40" zoomAndPan="magnify" viewBox="0 0 30 30.000001" height="40" preserveAspectRatio="xMidYMid meet" version="1.0"><defs><clipPath id="c29c06e7f2"><path d="M 0.484375 0 L 29.515625 0 L 29.515625 29.03125 L 0.484375 29.03125 Z M 0.484375 0 " clip-rule="nonzero"/></clipPath><clipPath id="972ea755bc"><path d="M 3.386719 4.613281 L 24 4.613281 L 24 24.210938 L 3.386719 24.210938 Z M 3.386719 4.613281 " clip-rule="nonzero"/></clipPath><clipPath id="11a905aed3"><path d="M 23 21 L 26.613281 21 L 26.613281 24.210938 L 23 24.210938 Z M 23 21 " clip-rule="nonzero"/></clipPath></defs><g clip-path="url(#c29c06e7f2)"><path fill="#ffffff" d="M 0.484375 0 L 29.515625 0 L 29.515625 29.03125 L 0.484375 29.03125 Z M 0.484375 0 " fill-opacity="1" fill-rule="nonzero"/><path fill="#ffffff" d="M 0.484375 0 L 29.515625 0 L 29.515625 29.03125 L 0.484375 29.03125 Z M 0.484375 0 " fill-opacity="1" fill-rule="nonzero"/></g><path fill="#505050" d="M 25.464844 23.148438 C 25.667969 23.148438 25.832031 22.988281 25.832031 22.789062 C 25.832031 22.78125 25.832031 22.773438 25.832031 22.761719 C 25.832031 22.492188 25.667969 22.359375 25.332031 22.359375 L 24.785156 22.359375 L 24.785156 23.789062 L 24.992188 23.789062 L 24.992188 23.164062 L 25.242188 23.164062 L 25.246094 23.171875 L 25.640625 23.785156 L 25.859375 23.785156 L 25.4375 23.148438 L 25.464844 23.144531 Z M 25.230469 23.003906 L 24.992188 23.003906 L 24.992188 22.523438 L 25.292969 22.523438 C 25.449219 22.523438 25.625 22.546875 25.625 22.75 C 25.625 22.984375 25.445312 23.003906 25.226562 23.003906 " fill-opacity="1" fill-rule="nonzero"/><g clip-path="url(#972ea755bc)"><path fill="#505050" d="M 20.113281 21.359375 L 17.203125 21.359375 L 17.203125 16.804688 C 17.203125 15.71875 17.1875 14.320312 15.691406 14.320312 C 14.199219 14.320312 13.945312 15.503906 13.945312 16.722656 L 13.945312 21.359375 L 11.035156 21.359375 L 11.035156 11.992188 L 13.828125 11.992188 L 13.828125 13.269531 L 13.867188 13.269531 C 14.4375 12.296875 15.496094 11.714844 16.621094 11.757812 C 19.570312 11.757812 20.113281 13.699219 20.113281 16.21875 Z M 7.753906 10.710938 C 6.820312 10.710938 6.066406 9.953125 6.066406 9.023438 C 6.066406 8.089844 6.820312 7.335938 7.753906 7.332031 C 8.6875 7.332031 9.441406 8.089844 9.441406 9.019531 C 9.445312 9.953125 8.6875 10.710938 7.753906 10.710938 M 9.210938 21.359375 L 6.296875 21.359375 L 6.296875 11.992188 L 9.210938 11.992188 Z M 21.5625 4.632812 L 4.835938 4.632812 C 4.046875 4.625 3.394531 5.257812 3.386719 6.046875 L 3.386719 22.847656 C 3.394531 23.636719 4.046875 24.273438 4.835938 24.261719 L 21.566406 24.261719 C 22.359375 24.273438 23.007812 23.640625 23.019531 22.847656 L 23.019531 6.046875 C 23.007812 5.253906 22.355469 4.621094 21.5625 4.632812 " fill-opacity="1" fill-rule="nonzero"/></g><g clip-path="url(#11a905aed3)"><path fill="#505050" d="M 25.253906 21.722656 C 24.515625 21.730469 23.921875 22.335938 23.925781 23.074219 C 23.933594 23.816406 24.539062 24.410156 25.28125 24.402344 C 26.019531 24.394531 26.613281 23.789062 26.605469 23.050781 C 26.597656 22.320312 26.007812 21.730469 25.28125 21.722656 L 25.253906 21.722656 M 25.253906 24.25 C 24.605469 24.257812 24.070312 23.742188 24.058594 23.09375 C 24.046875 22.445312 24.566406 21.910156 25.214844 21.902344 C 25.863281 21.890625 26.394531 22.40625 26.40625 23.054688 L 26.40625 23.074219 C 26.421875 23.707031 25.917969 24.234375 25.285156 24.246094 L 25.253906 24.246094 " fill-opacity="1" fill-rule="nonzero"/></g></svg>