<svg xmlns="http://www.w3.org/2000/svg" xmlns:xlink="http://www.w3.org/1999/xlink" width="40" zoomAndPan="magnify" viewBox="0 0 30 30.000001" height="40" preserveAspectRatio="xMidYMid meet" version="1.0"><defs><clipPath id="9924365d8d"><path d="M 0.484375 0 L 29.515625 0 L 29.515625 29.03125 L 0.484375 29.03125 Z M 0.484375 0 " clip-rule="nonzero"/></clipPath><clipPath id="67fbfbcf35"><path d="M 3.386719 3 L 26.613281 3 L 26.613281 26.128906 L 3.386719 26.128906 Z M 3.386719 3 " clip-rule="nonzero"/></clipPath></defs><g clip-path="url(#9924365d8d)"><path fill="#ffffff" d="M 0.484375 0 L 29.515625 0 L 29.515625 29.03125 L 0.484375 29.03125 Z M 0.484375 0 " fill-opacity="1" fill-rule="nonzero"/><path fill="#ffffff" d="M 0.484375 0 L 29.515625 0 L 29.515625 29.03125 L 0.484375 29.03125 Z M 0.484375 0 " fill-opacity="1" fill-rule="nonzero"/></g><g clip-path="url(#67fbfbcf35)"><path fill="#505050" d="M 16.050781 26.128906 L 14.800781 26.128906 L 14.609375 26.089844 C 14.164062 26.035156 13.71875 26 13.28125 25.917969 C 10.351562 25.339844 7.964844 23.855469 6.214844 21.449219 C 4 18.40625 3.398438 15.023438 4.457031 11.414062 C 5.964844 6.257812 10.832031 2.902344 16.1875 3.246094 C 18.679688 3.410156 20.886719 4.300781 22.789062 5.910156 C 24.917969 7.710938 26.226562 9.984375 26.714844 12.742188 C 26.785156 13.15625 26.828125 13.578125 26.882812 14 L 26.882812 15.339844 L 26.839844 15.578125 C 26.789062 15.988281 26.757812 16.410156 26.675781 16.816406 C 26.160156 19.464844 24.859375 21.660156 22.8125 23.414062 C 21.238281 24.765625 19.425781 25.613281 17.375 25.949219 C 16.9375 26.027344 16.496094 26.066406 16.050781 26.128906 Z M 10.574219 9.164062 L 7.4375 7.621094 C 5.800781 9.5 4.902344 11.714844 4.773438 14.257812 L 9.515625 14.257812 C 9.5625 12.496094 9.917969 10.796875 10.574219 9.164062 Z M 23.417969 7.621094 L 20.28125 9.164062 C 20.933594 10.769531 21.28125 12.476562 21.34375 14.257812 L 26.078125 14.257812 C 25.953125 11.714844 25.058594 9.5 23.417969 7.621094 Z M 9.515625 15.085938 L 4.773438 15.085938 C 4.894531 17.515625 5.71875 19.652344 7.269531 21.523438 C 8.269531 20.851562 9.335938 20.308594 10.46875 19.898438 C 9.882812 18.347656 9.5625 16.742188 9.515625 15.085938 Z M 23.636719 21.46875 C 25.136719 19.640625 25.964844 17.503906 26.078125 15.085938 L 21.390625 15.085938 C 21.28125 15.917969 21.210938 16.738281 21.054688 17.539062 C 20.902344 18.339844 20.648438 19.109375 20.453125 19.84375 Z M 11.359375 9.34375 C 10.703125 10.914062 10.351562 12.554688 10.308594 14.257812 L 15.015625 14.257812 L 15.015625 9.90625 C 13.773438 9.875 12.554688 9.6875 11.359375 9.34375 Z M 19.492188 9.34375 C 18.277344 9.695312 17.070312 9.867188 15.835938 9.917969 L 15.835938 14.257812 L 20.542969 14.257812 C 20.5 12.554688 20.152344 10.914062 19.492188 9.34375 Z M 15.835938 15.082031 L 15.835938 19.035156 C 17.125 19.070312 18.386719 19.273438 19.625 19.636719 C 20.144531 18.484375 20.640625 15.921875 20.515625 15.082031 Z M 15.011719 19.007812 L 15.011719 15.082031 L 10.308594 15.082031 C 10.347656 16.644531 10.648438 18.15625 11.207031 19.613281 C 11.859375 19.476562 12.476562 19.316406 13.097656 19.21875 C 13.71875 19.121094 14.367188 19.078125 15.011719 19.007812 Z M 7.808594 22.117188 C 9.527344 23.839844 11.570312 24.882812 14.03125 25.238281 C 12.648438 23.914062 11.558594 22.375 10.769531 20.625 C 9.722656 21.003906 8.734375 21.5 7.808594 22.117188 Z M 16.824219 25.238281 C 19.28125 24.882812 21.328125 23.847656 23.046875 22.117188 C 22.121094 21.496094 21.132812 21 20.082031 20.632812 C 19.296875 22.378906 18.210938 23.914062 16.824219 25.238281 Z M 19.324219 20.382812 C 18.1875 20.042969 17.03125 19.859375 15.84375 19.824219 L 15.84375 25.058594 C 17.34375 23.75 18.5 22.191406 19.324219 20.382812 Z M 11.527344 20.382812 C 12.355469 22.191406 13.515625 23.753906 15.015625 25.058594 L 15.015625 19.824219 C 13.832031 19.859375 12.667969 20.046875 11.527344 20.382812 Z M 10.863281 8.355469 C 11.34375 7.585938 11.769531 6.824219 12.277344 6.121094 C 12.785156 5.421875 13.386719 4.773438 13.945312 4.113281 C 11.695312 4.4375 9.726562 5.398438 8.046875 6.984375 C 8.933594 7.550781 9.871094 8.007812 10.863281 8.355469 Z M 16.824219 4.097656 C 18.132812 5.371094 19.160156 6.773438 19.925781 8.359375 C 20.554688 8.214844 22.152344 7.445312 22.804688 6.980469 C 21.132812 5.402344 19.167969 4.441406 16.824219 4.097656 Z M 15.015625 4.273438 C 13.605469 5.519531 12.507812 6.945312 11.699219 8.605469 C 12.492188 8.882812 14.542969 9.179688 15.015625 9.089844 Z M 19.164062 8.609375 C 18.347656 6.941406 17.238281 5.496094 15.835938 4.277344 L 15.835938 9.121094 C 16.964844 9.085938 18.074219 8.917969 19.164062 8.609375 Z M 19.164062 8.609375 " fill-opacity="1" fill-rule="nonzero"/></g></svg>